<svg xmlns="http://www.w3.org/2000/svg" xmlns:xlink="http://www.w3.org/1999/xlink" viewBox="0 0 300 300" width="300" height="300" preserveAspectRatio="xMidYMid meet" style="width: 100%; height: 100%; transform: translate3d(0px, 0px, 0px); content-visibility: visible;"><defs><clipPath id="__lottie_element_469"><rect width="300" height="300" x="0" y="0"></rect></clipPath></defs><g clip-path="url(#__lottie_element_469)"><g transform="matrix(0.30000001192092896,0,0,0.30000001192092896,150,150)" opacity="0.3" style="display: block;"><g opacity="1" transform="matrix(1,0,0,1,0,0)"><path stroke-linecap="butt" stroke-linejoin="miter" fill-opacity="0" stroke-miterlimit="4" stroke="rgb(170,215,235)" stroke-opacity="1" stroke-width="50" d=" M0,-150 C82.78500366210938,-150 150,-82.78500366210938 150,0 C150,82.78500366210938 82.78500366210938,150 0,150 C-82.78500366210938,150 -150,82.78500366210938 -150,0 C-150,-82.78500366210938 -82.78500366210938,-150 0,-150z"></path></g></g><g transform="matrix(0.2816425859928131,0.10333183407783508,-0.10333183407783508,0.2816425859928131,150,150)" opacity="1" style="display: block;"><g opacity="1" transform="matrix(1,0,0,1,0,0)"><path stroke-linecap="round" stroke-linejoin="miter" fill-opacity="0" stroke-miterlimit="4" stroke="rgb(58,169,220)" stroke-opacity="1" stroke-width="50" d=" M0,-150 C7.433000087738037,-150 14.739999771118164,-149.45799255371094 21.884000778198242,-148.41200256347656"></path></g></g></g></svg>